<?xml version="1.0" encoding="UTF-8" standalone="no"?>
<!DOCTYPE svg PUBLIC "-//W3C//DTD SVG 1.1//EN"
 "http://www.w3.org/Graphics/SVG/1.1/DTD/svg11.dtd">
<!-- Generated by graphviz version 2.43.0 (0)
 -->
<!-- Title: snakemake_dag Pages: 1 -->
<svg width="639pt" height="2358pt"
 viewBox="0.00 0.00 639.00 2358.00" xmlns="http://www.w3.org/2000/svg" xmlns:xlink="http://www.w3.org/1999/xlink">
<g id="graph0" class="graph" transform="scale(1 1) rotate(0) translate(4 2354)">
<title>snakemake_dag</title>
<polygon fill="white" stroke="transparent" points="-4,4 -4,-2354 635,-2354 635,4 -4,4"/>
<!-- 0 -->
<g id="node1" class="node">
<title>0</title>
<path fill="none" stroke="#d8cb56" stroke-width="2" d="M441.5,-36C441.5,-36 402.5,-36 402.5,-36 396.5,-36 390.5,-30 390.5,-24 390.5,-24 390.5,-12 390.5,-12 390.5,-6 396.5,0 402.5,0 402.5,0 441.5,0 441.5,0 447.5,0 453.5,-6 453.5,-12 453.5,-12 453.5,-24 453.5,-24 453.5,-30 447.5,-36 441.5,-36"/>
<text text-anchor="middle" x="422" y="-15.5" font-family="sans" font-size="10.00">target_all</text>
</g>
<!-- 1 -->
<g id="node2" class="node">
<title>1</title>
<path fill="none" stroke="#70d856" stroke-width="2" d="M417,-108C417,-108 359,-108 359,-108 353,-108 347,-102 347,-96 347,-96 347,-84 347,-84 347,-78 353,-72 359,-72 359,-72 417,-72 417,-72 423,-72 429,-78 429,-84 429,-84 429,-96 429,-96 429,-102 423,-108 417,-108"/>
<text text-anchor="middle" x="388" y="-93" font-family="sans" font-size="10.00">result_concat</text>
<text text-anchor="middle" x="388" y="-82" font-family="sans" font-size="10.00">mask: MICH</text>
</g>
<!-- 1&#45;&gt;0 -->
<g id="edge1" class="edge">
<title>1&#45;&gt;0</title>
<path fill="none" stroke="grey" stroke-width="2" d="M396.4,-71.7C400.27,-63.73 404.95,-54.1 409.24,-45.26"/>
<polygon fill="grey" stroke="grey" stroke-width="2" points="412.47,-46.63 413.69,-36.1 406.17,-43.57 412.47,-46.63"/>
</g>
<!-- 2 -->
<g id="node3" class="node">
<title>2</title>
<path fill="none" stroke="#d6d856" stroke-width="2" d="M391,-252C391,-252 329,-252 329,-252 323,-252 317,-246 317,-240 317,-240 317,-228 317,-228 317,-222 323,-216 329,-216 329,-216 391,-216 391,-216 397,-216 403,-222 403,-228 403,-228 403,-240 403,-240 403,-246 397,-252 391,-252"/>
<text text-anchor="middle" x="360" y="-237" font-family="sans" font-size="10.00">result</text>
<text text-anchor="middle" x="360" y="-226" font-family="sans" font-size="10.00">population: all</text>
</g>
<!-- 2&#45;&gt;1 -->
<g id="edge5" class="edge">
<title>2&#45;&gt;1</title>
<path fill="none" stroke="grey" stroke-width="2" d="M363.38,-215.87C368.17,-191.56 376.99,-146.82 382.67,-118.01"/>
<polygon fill="grey" stroke="grey" stroke-width="2" points="386.11,-118.68 384.61,-108.19 379.24,-117.32 386.11,-118.68"/>
</g>
<!-- 56 -->
<g id="node57" class="node">
<title>56</title>
<path fill="none" stroke="#5682d8" stroke-width="2" d="M333.5,-180C333.5,-180 268.5,-180 268.5,-180 262.5,-180 256.5,-174 256.5,-168 256.5,-168 256.5,-156 256.5,-156 256.5,-150 262.5,-144 268.5,-144 268.5,-144 333.5,-144 333.5,-144 339.5,-144 345.5,-150 345.5,-156 345.5,-156 345.5,-168 345.5,-168 345.5,-174 339.5,-180 333.5,-180"/>
<text text-anchor="middle" x="301" y="-159.5" font-family="sans" font-size="10.00">result_unmask</text>
</g>
<!-- 2&#45;&gt;56 -->
<g id="edge81" class="edge">
<title>2&#45;&gt;56</title>
<path fill="none" stroke="grey" stroke-width="2" d="M345.42,-215.7C338.34,-207.3 329.72,-197.07 321.95,-187.86"/>
<polygon fill="grey" stroke="grey" stroke-width="2" points="324.54,-185.49 315.42,-180.1 319.19,-190.01 324.54,-185.49"/>
</g>
<!-- 3 -->
<g id="node4" class="node">
<title>3</title>
<path fill="none" stroke="#56d87b" stroke-width="2" d="M442,-324C442,-324 392,-324 392,-324 386,-324 380,-318 380,-312 380,-312 380,-300 380,-300 380,-294 386,-288 392,-288 392,-288 442,-288 442,-288 448,-288 454,-294 454,-300 454,-300 454,-312 454,-312 454,-318 448,-324 442,-324"/>
<text text-anchor="middle" x="417" y="-303.5" font-family="sans" font-size="10.00">king_merge</text>
</g>
<!-- 3&#45;&gt;2 -->
<g id="edge6" class="edge">
<title>3&#45;&gt;2</title>
<path fill="none" stroke="grey" stroke-width="2" d="M402.91,-287.7C396.08,-279.3 387.74,-269.07 380.24,-259.86"/>
<polygon fill="grey" stroke="grey" stroke-width="2" points="382.96,-257.65 373.93,-252.1 377.53,-262.07 382.96,-257.65"/>
</g>
<!-- 54 -->
<g id="node55" class="node">
<title>54</title>
<path fill="none" stroke="#d6d856" stroke-width="2" d="M514.5,-252C514.5,-252 433.5,-252 433.5,-252 427.5,-252 421.5,-246 421.5,-240 421.5,-240 421.5,-228 421.5,-228 421.5,-222 427.5,-216 433.5,-216 433.5,-216 514.5,-216 514.5,-216 520.5,-216 526.5,-222 526.5,-228 526.5,-228 526.5,-240 526.5,-240 526.5,-246 520.5,-252 514.5,-252"/>
<text text-anchor="middle" x="474" y="-237" font-family="sans" font-size="10.00">result</text>
<text text-anchor="middle" x="474" y="-226" font-family="sans" font-size="10.00">population: cohort</text>
</g>
<!-- 3&#45;&gt;54 -->
<g id="edge79" class="edge">
<title>3&#45;&gt;54</title>
<path fill="none" stroke="grey" stroke-width="2" d="M431.09,-287.7C437.92,-279.3 446.26,-269.07 453.76,-259.86"/>
<polygon fill="grey" stroke="grey" stroke-width="2" points="456.47,-262.07 460.07,-252.1 451.04,-257.65 456.47,-262.07"/>
</g>
<!-- 4 -->
<g id="node5" class="node">
<title>4</title>
<path fill="none" stroke="#d8ac56" stroke-width="2" d="M387.5,-396C387.5,-396 326.5,-396 326.5,-396 320.5,-396 314.5,-390 314.5,-384 314.5,-384 314.5,-372 314.5,-372 314.5,-366 320.5,-360 326.5,-360 326.5,-360 387.5,-360 387.5,-360 393.5,-360 399.5,-366 399.5,-372 399.5,-372 399.5,-384 399.5,-384 399.5,-390 393.5,-396 387.5,-396"/>
<text text-anchor="middle" x="357" y="-381" font-family="sans" font-size="10.00">king_filter</text>
<text text-anchor="middle" x="357" y="-370" font-family="sans" font-size="10.00">group: immun</text>
</g>
<!-- 4&#45;&gt;3 -->
<g id="edge7" class="edge">
<title>4&#45;&gt;3</title>
<path fill="none" stroke="grey" stroke-width="2" d="M371.83,-359.7C379.02,-351.3 387.8,-341.07 395.69,-331.86"/>
<polygon fill="grey" stroke="grey" stroke-width="2" points="398.49,-333.97 402.34,-324.1 393.17,-329.42 398.49,-333.97"/>
</g>
<!-- 5 -->
<g id="node6" class="node">
<title>5</title>
<path fill="none" stroke="#56d882" stroke-width="2" d="M372,-468C372,-468 342,-468 342,-468 336,-468 330,-462 330,-456 330,-456 330,-444 330,-444 330,-438 336,-432 342,-432 342,-432 372,-432 372,-432 378,-432 384,-438 384,-444 384,-444 384,-456 384,-456 384,-462 378,-468 372,-468"/>
<text text-anchor="middle" x="357" y="-447.5" font-family="sans" font-size="10.00">king_qc</text>
</g>
<!-- 5&#45;&gt;4 -->
<g id="edge9" class="edge">
<title>5&#45;&gt;4</title>
<path fill="none" stroke="grey" stroke-width="2" d="M357,-431.7C357,-423.98 357,-414.71 357,-406.11"/>
<polygon fill="grey" stroke="grey" stroke-width="2" points="360.5,-406.1 357,-396.1 353.5,-406.1 360.5,-406.1"/>
</g>
<!-- 52 -->
<g id="node53" class="node">
<title>52</title>
<path fill="none" stroke="#d8ac56" stroke-width="2" d="M526,-396C526,-396 430,-396 430,-396 424,-396 418,-390 418,-384 418,-384 418,-372 418,-372 418,-366 424,-360 430,-360 430,-360 526,-360 526,-360 532,-360 538,-366 538,-372 538,-372 538,-384 538,-384 538,-390 532,-396 526,-396"/>
<text text-anchor="middle" x="478" y="-381" font-family="sans" font-size="10.00">king_filter</text>
<text text-anchor="middle" x="478" y="-370" font-family="sans" font-size="10.00">group: exome_merge</text>
</g>
<!-- 5&#45;&gt;52 -->
<g id="edge75" class="edge">
<title>5&#45;&gt;52</title>
<path fill="none" stroke="grey" stroke-width="2" d="M384.15,-433.29C400.41,-423.89 421.34,-411.78 439.31,-401.38"/>
<polygon fill="grey" stroke="grey" stroke-width="2" points="441.49,-404.16 448.39,-396.13 437.99,-398.11 441.49,-404.16"/>
</g>
<!-- 6 -->
<g id="node7" class="node">
<title>6</title>
<path fill="none" stroke="#d8b456" stroke-width="2" d="M395,-540C395,-540 303,-540 303,-540 297,-540 291,-534 291,-528 291,-528 291,-516 291,-516 291,-510 297,-504 303,-504 303,-504 395,-504 395,-504 401,-504 407,-510 407,-516 407,-516 407,-528 407,-528 407,-534 401,-540 395,-540"/>
<text text-anchor="middle" x="349" y="-525" font-family="sans" font-size="10.00">king_subset</text>
<text text-anchor="middle" x="349" y="-514" font-family="sans" font-size="10.00">subset: immunochip</text>
</g>
<!-- 6&#45;&gt;5 -->
<g id="edge12" class="edge">
<title>6&#45;&gt;5</title>
<path fill="none" stroke="grey" stroke-width="2" d="M350.98,-503.7C351.86,-495.98 352.92,-486.71 353.9,-478.11"/>
<polygon fill="grey" stroke="grey" stroke-width="2" points="357.39,-478.44 355.05,-468.1 350.43,-477.64 357.39,-478.44"/>
</g>
<!-- 7 -->
<g id="node8" class="node">
<title>7</title>
<path fill="none" stroke="#78d856" stroke-width="2" d="M473,-612C473,-612 363,-612 363,-612 357,-612 351,-606 351,-600 351,-600 351,-588 351,-588 351,-582 357,-576 363,-576 363,-576 473,-576 473,-576 479,-576 485,-582 485,-588 485,-588 485,-600 485,-600 485,-606 479,-612 473,-612"/>
<text text-anchor="middle" x="418" y="-591.5" font-family="sans" font-size="10.00">cc_filter_ruth_post_filter</text>
</g>
<!-- 7&#45;&gt;4 -->
<g id="edge11" class="edge">
<title>7&#45;&gt;4</title>
<path fill="none" stroke="grey" stroke-width="2" d="M350.74,-583.3C324.8,-575.92 297.66,-562.91 282,-540 251.47,-495.34 298.01,-436.28 330.32,-403.53"/>
<polygon fill="grey" stroke="grey" stroke-width="2" points="333.11,-405.7 337.77,-396.18 328.19,-400.71 333.11,-405.7"/>
</g>
<!-- 7&#45;&gt;6 -->
<g id="edge13" class="edge">
<title>7&#45;&gt;6</title>
<path fill="none" stroke="grey" stroke-width="2" d="M400.94,-575.7C392.5,-567.14 382.18,-556.66 372.96,-547.3"/>
<polygon fill="grey" stroke="grey" stroke-width="2" points="375.37,-544.77 365.86,-540.1 370.39,-549.68 375.37,-544.77"/>
</g>
<!-- 51 -->
<g id="node52" class="node">
<title>51</title>
<path fill="none" stroke="#d8b456" stroke-width="2" d="M537,-540C537,-540 437,-540 437,-540 431,-540 425,-534 425,-528 425,-528 425,-516 425,-516 425,-510 431,-504 437,-504 437,-504 537,-504 537,-504 543,-504 549,-510 549,-516 549,-516 549,-528 549,-528 549,-534 543,-540 537,-540"/>
<text text-anchor="middle" x="487" y="-525" font-family="sans" font-size="10.00">king_subset</text>
<text text-anchor="middle" x="487" y="-514" font-family="sans" font-size="10.00">subset: t1dexomechip</text>
</g>
<!-- 7&#45;&gt;51 -->
<g id="edge74" class="edge">
<title>7&#45;&gt;51</title>
<path fill="none" stroke="grey" stroke-width="2" d="M435.06,-575.7C443.5,-567.14 453.82,-556.66 463.04,-547.3"/>
<polygon fill="grey" stroke="grey" stroke-width="2" points="465.61,-549.68 470.14,-540.1 460.63,-544.77 465.61,-549.68"/>
</g>
<!-- 7&#45;&gt;52 -->
<g id="edge77" class="edge">
<title>7&#45;&gt;52</title>
<path fill="none" stroke="grey" stroke-width="2" d="M485.35,-584.29C512.59,-577.09 541.46,-563.95 558,-540 589.25,-494.76 539.6,-435.53 505.6,-403"/>
<polygon fill="grey" stroke="grey" stroke-width="2" points="507.89,-400.36 498.19,-396.1 503.12,-405.48 507.89,-400.36"/>
</g>
<!-- 8 -->
<g id="node9" class="node">
<title>8</title>
<path fill="none" stroke="#56d892" stroke-width="2" d="M446,-684C446,-684 390,-684 390,-684 384,-684 378,-678 378,-672 378,-672 378,-660 378,-660 378,-654 384,-648 390,-648 390,-648 446,-648 446,-648 452,-648 458,-654 458,-660 458,-660 458,-672 458,-672 458,-678 452,-684 446,-684"/>
<text text-anchor="middle" x="418" y="-663.5" font-family="sans" font-size="10.00">cc_filter_ruth</text>
</g>
<!-- 8&#45;&gt;7 -->
<g id="edge14" class="edge">
<title>8&#45;&gt;7</title>
<path fill="none" stroke="grey" stroke-width="2" d="M418,-647.7C418,-639.98 418,-630.71 418,-622.11"/>
<polygon fill="grey" stroke="grey" stroke-width="2" points="421.5,-622.1 418,-612.1 414.5,-622.1 421.5,-622.1"/>
</g>
<!-- 9 -->
<g id="node10" class="node">
<title>9</title>
<path fill="none" stroke="#9fd856" stroke-width="2" d="M200.5,-828C200.5,-828 169.5,-828 169.5,-828 163.5,-828 157.5,-822 157.5,-816 157.5,-816 157.5,-804 157.5,-804 157.5,-798 163.5,-792 169.5,-792 169.5,-792 200.5,-792 200.5,-792 206.5,-792 212.5,-798 212.5,-804 212.5,-804 212.5,-816 212.5,-816 212.5,-822 206.5,-828 200.5,-828"/>
<text text-anchor="middle" x="185" y="-807.5" font-family="sans" font-size="10.00">cc_filter</text>
</g>
<!-- 9&#45;&gt;8 -->
<g id="edge15" class="edge">
<title>9&#45;&gt;8</title>
<path fill="none" stroke="grey" stroke-width="2" d="M212.64,-792.15C254.66,-766.55 334.63,-717.81 381.42,-689.29"/>
<polygon fill="grey" stroke="grey" stroke-width="2" points="383.31,-692.24 390.03,-684.05 379.67,-686.26 383.31,-692.24"/>
</g>
<!-- 10 -->
<g id="node11" class="node">
<title>10</title>
<path fill="none" stroke="#d88556" stroke-width="2" d="M131,-1332C131,-1332 29,-1332 29,-1332 23,-1332 17,-1326 17,-1320 17,-1320 17,-1308 17,-1308 17,-1302 23,-1296 29,-1296 29,-1296 131,-1296 131,-1296 137,-1296 143,-1302 143,-1308 143,-1308 143,-1320 143,-1320 143,-1326 137,-1332 131,-1332"/>
<text text-anchor="middle" x="80" y="-1317" font-family="sans" font-size="10.00">cc_filter_ruth_samples</text>
<text text-anchor="middle" x="80" y="-1306" font-family="sans" font-size="10.00">subset: all</text>
</g>
<!-- 10&#45;&gt;9 -->
<g id="edge17" class="edge">
<title>10&#45;&gt;9</title>
<path fill="none" stroke="grey" stroke-width="2" d="M81.38,-1295.96C83.42,-1269.32 87,-1216.17 87,-1171 87,-1171 87,-1171 87,-953 87,-910.97 94.59,-898.22 119,-864 127.09,-852.66 138.25,-842.44 149.08,-834.08"/>
<polygon fill="grey" stroke="grey" stroke-width="2" points="151.28,-836.81 157.25,-828.06 147.13,-831.18 151.28,-836.81"/>
</g>
<!-- 11 -->
<g id="node12" class="node">
<title>11</title>
<path fill="none" stroke="#59d856" stroke-width="2" d="M342,-1476C342,-1476 256,-1476 256,-1476 250,-1476 244,-1470 244,-1464 244,-1464 244,-1452 244,-1452 244,-1446 250,-1440 256,-1440 256,-1440 342,-1440 342,-1440 348,-1440 354,-1446 354,-1452 354,-1452 354,-1464 354,-1464 354,-1470 348,-1476 342,-1476"/>
<text text-anchor="middle" x="299" y="-1455.5" font-family="sans" font-size="10.00">filter_mendel_keep</text>
</g>
<!-- 11&#45;&gt;10 -->
<g id="edge20" class="edge">
<title>11&#45;&gt;10</title>
<path fill="none" stroke="grey" stroke-width="2" d="M243.95,-1452.96C204.94,-1447.45 153.59,-1434.47 119,-1404 100.86,-1388.03 90.81,-1362.06 85.48,-1342.29"/>
<polygon fill="grey" stroke="grey" stroke-width="2" points="88.82,-1341.2 83.04,-1332.32 82.02,-1342.87 88.82,-1341.2"/>
</g>
<!-- 37 -->
<g id="node38" class="node">
<title>37</title>
<path fill="none" stroke="#56d8a9" stroke-width="2" d="M315.5,-1404C315.5,-1404 282.5,-1404 282.5,-1404 276.5,-1404 270.5,-1398 270.5,-1392 270.5,-1392 270.5,-1380 270.5,-1380 270.5,-1374 276.5,-1368 282.5,-1368 282.5,-1368 315.5,-1368 315.5,-1368 321.5,-1368 327.5,-1374 327.5,-1380 327.5,-1380 327.5,-1392 327.5,-1392 327.5,-1398 321.5,-1404 315.5,-1404"/>
<text text-anchor="middle" x="299" y="-1383.5" font-family="sans" font-size="10.00">join_sex</text>
</g>
<!-- 11&#45;&gt;37 -->
<g id="edge55" class="edge">
<title>11&#45;&gt;37</title>
<path fill="none" stroke="grey" stroke-width="2" d="M299,-1439.7C299,-1431.98 299,-1422.71 299,-1414.11"/>
<polygon fill="grey" stroke="grey" stroke-width="2" points="302.5,-1414.1 299,-1404.1 295.5,-1414.1 302.5,-1414.1"/>
</g>
<!-- 48 -->
<g id="node49" class="node">
<title>48</title>
<path fill="none" stroke="#d88556" stroke-width="2" d="M619,-900C619,-900 517,-900 517,-900 511,-900 505,-894 505,-888 505,-888 505,-876 505,-876 505,-870 511,-864 517,-864 517,-864 619,-864 619,-864 625,-864 631,-870 631,-876 631,-876 631,-888 631,-888 631,-894 625,-900 619,-900"/>
<text text-anchor="middle" x="568" y="-885" font-family="sans" font-size="10.00">cc_filter_ruth_samples</text>
<text text-anchor="middle" x="568" y="-874" font-family="sans" font-size="10.00">subset: controls</text>
</g>
<!-- 11&#45;&gt;48 -->
<g id="edge69" class="edge">
<title>11&#45;&gt;48</title>
<path fill="none" stroke="grey" stroke-width="2" d="M354.22,-1449.35C425.64,-1436 541,-1401.1 541,-1315 541,-1315 541,-1315 541,-1025 541,-984.5 551.73,-938.63 559.66,-910.26"/>
<polygon fill="grey" stroke="grey" stroke-width="2" points="563.13,-910.87 562.54,-900.29 556.4,-908.93 563.13,-910.87"/>
</g>
<!-- 12 -->
<g id="node13" class="node">
<title>12</title>
<path fill="none" stroke="#d8c356" stroke-width="2" d="M363,-1548C363,-1548 305,-1548 305,-1548 299,-1548 293,-1542 293,-1536 293,-1536 293,-1524 293,-1524 293,-1518 299,-1512 305,-1512 305,-1512 363,-1512 363,-1512 369,-1512 375,-1518 375,-1524 375,-1524 375,-1536 375,-1536 375,-1542 369,-1548 363,-1548"/>
<text text-anchor="middle" x="334" y="-1527.5" font-family="sans" font-size="10.00">mendel_keep</text>
</g>
<!-- 12&#45;&gt;11 -->
<g id="edge21" class="edge">
<title>12&#45;&gt;11</title>
<path fill="none" stroke="grey" stroke-width="2" d="M325.35,-1511.7C321.36,-1503.73 316.55,-1494.1 312.13,-1485.26"/>
<polygon fill="grey" stroke="grey" stroke-width="2" points="315.15,-1483.48 307.55,-1476.1 308.89,-1486.61 315.15,-1483.48"/>
</g>
<!-- 13 -->
<g id="node14" class="node">
<title>13</title>
<path fill="none" stroke="#56d8d8" stroke-width="2" d="M352.5,-1620C352.5,-1620 317.5,-1620 317.5,-1620 311.5,-1620 305.5,-1614 305.5,-1608 305.5,-1608 305.5,-1596 305.5,-1596 305.5,-1590 311.5,-1584 317.5,-1584 317.5,-1584 352.5,-1584 352.5,-1584 358.5,-1584 364.5,-1590 364.5,-1596 364.5,-1596 364.5,-1608 364.5,-1608 364.5,-1614 358.5,-1620 352.5,-1620"/>
<text text-anchor="middle" x="335" y="-1605" font-family="sans" font-size="10.00">mendel</text>
<text text-anchor="middle" x="335" y="-1594" font-family="sans" font-size="10.00">me: 0.01</text>
</g>
<!-- 13&#45;&gt;12 -->
<g id="edge23" class="edge">
<title>13&#45;&gt;12</title>
<path fill="none" stroke="grey" stroke-width="2" d="M334.75,-1583.7C334.64,-1575.98 334.51,-1566.71 334.39,-1558.11"/>
<polygon fill="grey" stroke="grey" stroke-width="2" points="337.89,-1558.05 334.24,-1548.1 330.89,-1558.15 337.89,-1558.05"/>
</g>
<!-- 14 -->
<g id="node15" class="node">
<title>14</title>
<path fill="none" stroke="#61d856" stroke-width="2" d="M367,-1692C367,-1692 303,-1692 303,-1692 297,-1692 291,-1686 291,-1680 291,-1680 291,-1668 291,-1668 291,-1662 297,-1656 303,-1656 303,-1656 367,-1656 367,-1656 373,-1656 379,-1662 379,-1668 379,-1668 379,-1680 379,-1680 379,-1686 373,-1692 367,-1692"/>
<text text-anchor="middle" x="335" y="-1671.5" font-family="sans" font-size="10.00">combine_plink</text>
</g>
<!-- 14&#45;&gt;13 -->
<g id="edge24" class="edge">
<title>14&#45;&gt;13</title>
<path fill="none" stroke="grey" stroke-width="2" d="M335,-1655.7C335,-1647.98 335,-1638.71 335,-1630.11"/>
<polygon fill="grey" stroke="grey" stroke-width="2" points="338.5,-1630.1 335,-1620.1 331.5,-1630.1 338.5,-1630.1"/>
</g>
<!-- 15 -->
<g id="node16" class="node">
<title>15</title>
<path fill="none" stroke="#567bd8" stroke-width="2" d="M280.5,-1764C280.5,-1764 245.5,-1764 245.5,-1764 239.5,-1764 233.5,-1758 233.5,-1752 233.5,-1752 233.5,-1740 233.5,-1740 233.5,-1734 239.5,-1728 245.5,-1728 245.5,-1728 280.5,-1728 280.5,-1728 286.5,-1728 292.5,-1734 292.5,-1740 292.5,-1740 292.5,-1752 292.5,-1752 292.5,-1758 286.5,-1764 280.5,-1764"/>
<text text-anchor="middle" x="263" y="-1743.5" font-family="sans" font-size="10.00">combine</text>
</g>
<!-- 15&#45;&gt;11 -->
<g id="edge22" class="edge">
<title>15&#45;&gt;11</title>
<path fill="none" stroke="grey" stroke-width="2" d="M263.45,-1727.9C264.72,-1689.16 269.23,-1591.88 284,-1512 285.56,-1503.54 287.88,-1494.47 290.23,-1486.28"/>
<polygon fill="grey" stroke="grey" stroke-width="2" points="293.65,-1487.06 293.17,-1476.47 286.95,-1485.05 293.65,-1487.06"/>
</g>
<!-- 15&#45;&gt;14 -->
<g id="edge26" class="edge">
<title>15&#45;&gt;14</title>
<path fill="none" stroke="grey" stroke-width="2" d="M280.8,-1727.7C289.6,-1719.14 300.38,-1708.66 310,-1699.3"/>
<polygon fill="grey" stroke="grey" stroke-width="2" points="312.68,-1701.58 317.41,-1692.1 307.8,-1696.57 312.68,-1701.58"/>
</g>
<!-- 16 -->
<g id="node17" class="node">
<title>16</title>
<path fill="none" stroke="#8fd856" stroke-width="2" d="M338,-1836C338,-1836 294,-1836 294,-1836 288,-1836 282,-1830 282,-1824 282,-1824 282,-1812 282,-1812 282,-1806 288,-1800 294,-1800 294,-1800 338,-1800 338,-1800 344,-1800 350,-1806 350,-1812 350,-1812 350,-1824 350,-1824 350,-1830 344,-1836 338,-1836"/>
<text text-anchor="middle" x="316" y="-1815.5" font-family="sans" font-size="10.00">filter_keep</text>
</g>
<!-- 16&#45;&gt;15 -->
<g id="edge27" class="edge">
<title>16&#45;&gt;15</title>
<path fill="none" stroke="grey" stroke-width="2" d="M302.9,-1799.7C296.61,-1791.39 288.95,-1781.28 282.04,-1772.14"/>
<polygon fill="grey" stroke="grey" stroke-width="2" points="284.78,-1769.96 275.95,-1764.1 279.2,-1774.19 284.78,-1769.96"/>
</g>
<!-- 17 -->
<g id="node18" class="node">
<title>17</title>
<path fill="none" stroke="#d87d56" stroke-width="2" d="M355,-1908C355,-1908 317,-1908 317,-1908 311,-1908 305,-1902 305,-1896 305,-1896 305,-1884 305,-1884 305,-1878 311,-1872 317,-1872 317,-1872 355,-1872 355,-1872 361,-1872 367,-1878 367,-1884 367,-1884 367,-1896 367,-1896 367,-1902 361,-1908 355,-1908"/>
<text text-anchor="middle" x="336" y="-1893" font-family="sans" font-size="10.00">by_sex</text>
<text text-anchor="middle" x="336" y="-1882" font-family="sans" font-size="10.00">sex: both</text>
</g>
<!-- 17&#45;&gt;16 -->
<g id="edge30" class="edge">
<title>17&#45;&gt;16</title>
<path fill="none" stroke="grey" stroke-width="2" d="M331.06,-1871.7C328.83,-1863.9 326.15,-1854.51 323.67,-1845.83"/>
<polygon fill="grey" stroke="grey" stroke-width="2" points="327,-1844.76 320.89,-1836.1 320.27,-1846.68 327,-1844.76"/>
</g>
<!-- 18 -->
<g id="node19" class="node">
<title>18</title>
<path fill="none" stroke="#d86656" stroke-width="2" d="M366.5,-1980C366.5,-1980 313.5,-1980 313.5,-1980 307.5,-1980 301.5,-1974 301.5,-1968 301.5,-1968 301.5,-1956 301.5,-1956 301.5,-1950 307.5,-1944 313.5,-1944 313.5,-1944 366.5,-1944 366.5,-1944 372.5,-1944 378.5,-1950 378.5,-1956 378.5,-1956 378.5,-1968 378.5,-1968 378.5,-1974 372.5,-1980 366.5,-1980"/>
<text text-anchor="middle" x="340" y="-1965" font-family="sans" font-size="10.00">plink</text>
<text text-anchor="middle" x="340" y="-1954" font-family="sans" font-size="10.00">ethnicity: all</text>
</g>
<!-- 18&#45;&gt;17 -->
<g id="edge33" class="edge">
<title>18&#45;&gt;17</title>
<path fill="none" stroke="grey" stroke-width="2" d="M339.01,-1943.7C338.57,-1935.98 338.04,-1926.71 337.55,-1918.11"/>
<polygon fill="grey" stroke="grey" stroke-width="2" points="341.04,-1917.89 336.98,-1908.1 334.05,-1918.29 341.04,-1917.89"/>
</g>
<!-- 19 -->
<g id="node20" class="node">
<title>19</title>
<path fill="none" stroke="#56d89a" stroke-width="2" d="M422,-2052C422,-2052 392,-2052 392,-2052 386,-2052 380,-2046 380,-2040 380,-2040 380,-2028 380,-2028 380,-2022 386,-2016 392,-2016 392,-2016 422,-2016 422,-2016 428,-2016 434,-2022 434,-2028 434,-2028 434,-2040 434,-2040 434,-2046 428,-2052 422,-2052"/>
<text text-anchor="middle" x="407" y="-2031.5" font-family="sans" font-size="10.00">filter_r2</text>
</g>
<!-- 19&#45;&gt;13 -->
<g id="edge25" class="edge">
<title>19&#45;&gt;13</title>
<path fill="none" stroke="grey" stroke-width="2" d="M414.69,-2015.91C425.79,-1989.62 445,-1937.45 445,-1891 445,-1891 445,-1891 445,-1745 445,-1694.76 401.44,-1651.52 369.14,-1626.36"/>
<polygon fill="grey" stroke="grey" stroke-width="2" points="370.88,-1623.29 360.79,-1620.06 366.66,-1628.88 370.88,-1623.29"/>
</g>
<!-- 19&#45;&gt;16 -->
<g id="edge32" class="edge">
<title>19&#45;&gt;16</title>
<path fill="none" stroke="grey" stroke-width="2" d="M407.23,-2015.78C406.9,-1984.9 402.81,-1918.97 376,-1872 369.65,-1860.87 360.09,-1850.89 350.46,-1842.66"/>
<polygon fill="grey" stroke="grey" stroke-width="2" points="352.4,-1839.73 342.42,-1836.18 348.01,-1845.18 352.4,-1839.73"/>
</g>
<!-- 19&#45;&gt;18 -->
<g id="edge34" class="edge">
<title>19&#45;&gt;18</title>
<path fill="none" stroke="grey" stroke-width="2" d="M390.44,-2015.7C382.32,-2007.22 372.41,-1996.86 363.53,-1987.58"/>
<polygon fill="grey" stroke="grey" stroke-width="2" points="365.81,-1984.91 356.37,-1980.1 360.76,-1989.75 365.81,-1984.91"/>
</g>
<!-- 20 -->
<g id="node21" class="node">
<title>20</title>
<path fill="none" stroke="#56c9d8" stroke-width="2" d="M433.5,-2129C433.5,-2129 380.5,-2129 380.5,-2129 374.5,-2129 368.5,-2123 368.5,-2117 368.5,-2117 368.5,-2100 368.5,-2100 368.5,-2094 374.5,-2088 380.5,-2088 380.5,-2088 433.5,-2088 433.5,-2088 439.5,-2088 445.5,-2094 445.5,-2100 445.5,-2100 445.5,-2117 445.5,-2117 445.5,-2123 439.5,-2129 433.5,-2129"/>
<text text-anchor="middle" x="407" y="-2117" font-family="sans" font-size="10.00">hds_util</text>
<text text-anchor="middle" x="407" y="-2106" font-family="sans" font-size="10.00">chip: immun</text>
<text text-anchor="middle" x="407" y="-2095" font-family="sans" font-size="10.00">chr: chr22</text>
</g>
<!-- 20&#45;&gt;19 -->
<g id="edge35" class="edge">
<title>20&#45;&gt;19</title>
<path fill="none" stroke="grey" stroke-width="2" d="M407,-2087.69C407,-2079.91 407,-2070.84 407,-2062.45"/>
<polygon fill="grey" stroke="grey" stroke-width="2" points="410.5,-2062.32 407,-2052.32 403.5,-2062.32 410.5,-2062.32"/>
</g>
<!-- 21 -->
<g id="node22" class="node">
<title>21</title>
<path fill="none" stroke="#88d856" stroke-width="2" d="M141,-1908C141,-1908 111,-1908 111,-1908 105,-1908 99,-1902 99,-1896 99,-1896 99,-1884 99,-1884 99,-1878 105,-1872 111,-1872 111,-1872 141,-1872 141,-1872 147,-1872 153,-1878 153,-1884 153,-1884 153,-1896 153,-1896 153,-1902 147,-1908 141,-1908"/>
<text text-anchor="middle" x="126" y="-1887.5" font-family="sans" font-size="10.00">keep</text>
</g>
<!-- 21&#45;&gt;16 -->
<g id="edge31" class="edge">
<title>21&#45;&gt;16</title>
<path fill="none" stroke="grey" stroke-width="2" d="M153.43,-1878.3C158.91,-1876.19 164.63,-1874.01 170,-1872 204.26,-1859.17 243.21,-1845.05 272.26,-1834.62"/>
<polygon fill="grey" stroke="grey" stroke-width="2" points="273.48,-1837.9 281.71,-1831.22 271.11,-1831.31 273.48,-1837.9"/>
</g>
<!-- 28 -->
<g id="node29" class="node">
<title>28</title>
<path fill="none" stroke="#8fd856" stroke-width="2" d="M242,-1836C242,-1836 198,-1836 198,-1836 192,-1836 186,-1830 186,-1824 186,-1824 186,-1812 186,-1812 186,-1806 192,-1800 198,-1800 198,-1800 242,-1800 242,-1800 248,-1800 254,-1806 254,-1812 254,-1812 254,-1824 254,-1824 254,-1830 248,-1836 242,-1836"/>
<text text-anchor="middle" x="220" y="-1815.5" font-family="sans" font-size="10.00">filter_keep</text>
</g>
<!-- 21&#45;&gt;28 -->
<g id="edge43" class="edge">
<title>21&#45;&gt;28</title>
<path fill="none" stroke="grey" stroke-width="2" d="M149.24,-1871.7C161.19,-1862.8 175.92,-1851.82 188.85,-1842.2"/>
<polygon fill="grey" stroke="grey" stroke-width="2" points="191.1,-1844.88 197.03,-1836.1 186.92,-1839.27 191.1,-1844.88"/>
</g>
<!-- 33 -->
<g id="node34" class="node">
<title>33</title>
<path fill="none" stroke="#8fd856" stroke-width="2" d="M126,-1836C126,-1836 82,-1836 82,-1836 76,-1836 70,-1830 70,-1824 70,-1824 70,-1812 70,-1812 70,-1806 76,-1800 82,-1800 82,-1800 126,-1800 126,-1800 132,-1800 138,-1806 138,-1812 138,-1812 138,-1824 138,-1824 138,-1830 132,-1836 126,-1836"/>
<text text-anchor="middle" x="104" y="-1815.5" font-family="sans" font-size="10.00">filter_keep</text>
</g>
<!-- 21&#45;&gt;33 -->
<g id="edge49" class="edge">
<title>21&#45;&gt;33</title>
<path fill="none" stroke="grey" stroke-width="2" d="M120.56,-1871.7C118.11,-1863.9 115.16,-1854.51 112.43,-1845.83"/>
<polygon fill="grey" stroke="grey" stroke-width="2" points="115.71,-1844.59 109.38,-1836.1 109.04,-1846.69 115.71,-1844.59"/>
</g>
<!-- 22 -->
<g id="node23" class="node">
<title>22</title>
<path fill="none" stroke="#56d8c9" stroke-width="2" d="M137,-1980C137,-1980 107,-1980 107,-1980 101,-1980 95,-1974 95,-1968 95,-1968 95,-1956 95,-1956 95,-1950 101,-1944 107,-1944 107,-1944 137,-1944 137,-1944 143,-1944 149,-1950 149,-1956 149,-1956 149,-1968 149,-1968 149,-1974 143,-1980 137,-1980"/>
<text text-anchor="middle" x="122" y="-1959.5" font-family="sans" font-size="10.00">hwe</text>
</g>
<!-- 22&#45;&gt;21 -->
<g id="edge36" class="edge">
<title>22&#45;&gt;21</title>
<path fill="none" stroke="grey" stroke-width="2" d="M122.99,-1943.7C123.43,-1935.98 123.96,-1926.71 124.45,-1918.11"/>
<polygon fill="grey" stroke="grey" stroke-width="2" points="127.95,-1918.29 125.02,-1908.1 120.96,-1917.89 127.95,-1918.29"/>
</g>
<!-- 23 -->
<g id="node24" class="node">
<title>23</title>
<path fill="none" stroke="#d89c56" stroke-width="2" d="M173.5,-2052C173.5,-2052 132.5,-2052 132.5,-2052 126.5,-2052 120.5,-2046 120.5,-2040 120.5,-2040 120.5,-2028 120.5,-2028 120.5,-2022 126.5,-2016 132.5,-2016 132.5,-2016 173.5,-2016 173.5,-2016 179.5,-2016 185.5,-2022 185.5,-2028 185.5,-2028 185.5,-2040 185.5,-2040 185.5,-2046 179.5,-2052 173.5,-2052"/>
<text text-anchor="middle" x="153" y="-2031.5" font-family="sans" font-size="10.00">maf_geno</text>
</g>
<!-- 23&#45;&gt;22 -->
<g id="edge37" class="edge">
<title>23&#45;&gt;22</title>
<path fill="none" stroke="grey" stroke-width="2" d="M145.34,-2015.7C141.81,-2007.73 137.54,-1998.1 133.63,-1989.26"/>
<polygon fill="grey" stroke="grey" stroke-width="2" points="136.82,-1987.83 129.57,-1980.1 130.42,-1990.67 136.82,-1987.83"/>
</g>
<!-- 24 -->
<g id="node25" class="node">
<title>24</title>
<path fill="none" stroke="#d87d56" stroke-width="2" d="M176,-2126.5C176,-2126.5 138,-2126.5 138,-2126.5 132,-2126.5 126,-2120.5 126,-2114.5 126,-2114.5 126,-2102.5 126,-2102.5 126,-2096.5 132,-2090.5 138,-2090.5 138,-2090.5 176,-2090.5 176,-2090.5 182,-2090.5 188,-2096.5 188,-2102.5 188,-2102.5 188,-2114.5 188,-2114.5 188,-2120.5 182,-2126.5 176,-2126.5"/>
<text text-anchor="middle" x="157" y="-2111.5" font-family="sans" font-size="10.00">by_sex</text>
<text text-anchor="middle" x="157" y="-2100.5" font-family="sans" font-size="10.00">sex: both</text>
</g>
<!-- 24&#45;&gt;23 -->
<g id="edge38" class="edge">
<title>24&#45;&gt;23</title>
<path fill="none" stroke="grey" stroke-width="2" d="M156.05,-2090.32C155.59,-2081.92 155.02,-2071.62 154.5,-2062.19"/>
<polygon fill="grey" stroke="grey" stroke-width="2" points="157.99,-2061.85 153.94,-2052.06 151,-2062.24 157.99,-2061.85"/>
</g>
<!-- 25 -->
<g id="node26" class="node">
<title>25</title>
<path fill="none" stroke="#d86656" stroke-width="2" d="M192,-2201C192,-2201 136,-2201 136,-2201 130,-2201 124,-2195 124,-2189 124,-2189 124,-2177 124,-2177 124,-2171 130,-2165 136,-2165 136,-2165 192,-2165 192,-2165 198,-2165 204,-2171 204,-2177 204,-2177 204,-2189 204,-2189 204,-2195 198,-2201 192,-2201"/>
<text text-anchor="middle" x="164" y="-2186" font-family="sans" font-size="10.00">plink</text>
<text text-anchor="middle" x="164" y="-2175" font-family="sans" font-size="10.00">ethnicity: eur</text>
</g>
<!-- 25&#45;&gt;24 -->
<g id="edge39" class="edge">
<title>25&#45;&gt;24</title>
<path fill="none" stroke="grey" stroke-width="2" d="M162.34,-2164.82C161.53,-2156.42 160.54,-2146.12 159.62,-2136.69"/>
<polygon fill="grey" stroke="grey" stroke-width="2" points="163.09,-2136.18 158.65,-2126.56 156.12,-2136.85 163.09,-2136.18"/>
</g>
<!-- 26 -->
<g id="node27" class="node">
<title>26</title>
<path fill="none" stroke="#56d89a" stroke-width="2" d="M82,-2273C82,-2273 52,-2273 52,-2273 46,-2273 40,-2267 40,-2261 40,-2261 40,-2249 40,-2249 40,-2243 46,-2237 52,-2237 52,-2237 82,-2237 82,-2237 88,-2237 94,-2243 94,-2249 94,-2249 94,-2261 94,-2261 94,-2267 88,-2273 82,-2273"/>
<text text-anchor="middle" x="67" y="-2252.5" font-family="sans" font-size="10.00">filter_r2</text>
</g>
<!-- 26&#45;&gt;25 -->
<g id="edge40" class="edge">
<title>26&#45;&gt;25</title>
<path fill="none" stroke="grey" stroke-width="2" d="M90.98,-2236.7C103.31,-2227.8 118.52,-2216.82 131.85,-2207.2"/>
<polygon fill="grey" stroke="grey" stroke-width="2" points="134.24,-2209.79 140.3,-2201.1 130.14,-2204.12 134.24,-2209.79"/>
</g>
<!-- 26&#45;&gt;33 -->
<g id="edge50" class="edge">
<title>26&#45;&gt;33</title>
<path fill="none" stroke="grey" stroke-width="2" d="M46.96,-2236.74C37.09,-2227.17 25.86,-2214.5 19,-2201 0.18,-2163.98 0,-2151.03 0,-2109.5 0,-2109.5 0,-2109.5 0,-1961 0,-1911.63 41.42,-1868.02 71.98,-1842.56"/>
<polygon fill="grey" stroke="grey" stroke-width="2" points="74.3,-1845.19 79.88,-1836.18 69.9,-1839.74 74.3,-1845.19"/>
</g>
<!-- 35 -->
<g id="node36" class="node">
<title>35</title>
<path fill="none" stroke="#d86656" stroke-width="2" d="M93.5,-2201C93.5,-2201 40.5,-2201 40.5,-2201 34.5,-2201 28.5,-2195 28.5,-2189 28.5,-2189 28.5,-2177 28.5,-2177 28.5,-2171 34.5,-2165 40.5,-2165 40.5,-2165 93.5,-2165 93.5,-2165 99.5,-2165 105.5,-2171 105.5,-2177 105.5,-2177 105.5,-2189 105.5,-2189 105.5,-2195 99.5,-2201 93.5,-2201"/>
<text text-anchor="middle" x="67" y="-2186" font-family="sans" font-size="10.00">plink</text>
<text text-anchor="middle" x="67" y="-2175" font-family="sans" font-size="10.00">ethnicity: all</text>
</g>
<!-- 26&#45;&gt;35 -->
<g id="edge52" class="edge">
<title>26&#45;&gt;35</title>
<path fill="none" stroke="grey" stroke-width="2" d="M67,-2236.7C67,-2228.98 67,-2219.71 67,-2211.11"/>
<polygon fill="grey" stroke="grey" stroke-width="2" points="70.5,-2211.1 67,-2201.1 63.5,-2211.1 70.5,-2211.1"/>
</g>
<!-- 27 -->
<g id="node28" class="node">
<title>27</title>
<path fill="none" stroke="#56c9d8" stroke-width="2" d="M92,-2350C92,-2350 42,-2350 42,-2350 36,-2350 30,-2344 30,-2338 30,-2338 30,-2321 30,-2321 30,-2315 36,-2309 42,-2309 42,-2309 92,-2309 92,-2309 98,-2309 104,-2315 104,-2321 104,-2321 104,-2338 104,-2338 104,-2344 98,-2350 92,-2350"/>
<text text-anchor="middle" x="67" y="-2338" font-family="sans" font-size="10.00">hds_util</text>
<text text-anchor="middle" x="67" y="-2327" font-family="sans" font-size="10.00">chip: merge</text>
<text text-anchor="middle" x="67" y="-2316" font-family="sans" font-size="10.00">chr: chr22</text>
</g>
<!-- 27&#45;&gt;26 -->
<g id="edge41" class="edge">
<title>27&#45;&gt;26</title>
<path fill="none" stroke="grey" stroke-width="2" d="M67,-2308.69C67,-2300.91 67,-2291.84 67,-2283.45"/>
<polygon fill="grey" stroke="grey" stroke-width="2" points="70.5,-2283.32 67,-2273.32 63.5,-2283.32 70.5,-2283.32"/>
</g>
<!-- 28&#45;&gt;15 -->
<g id="edge28" class="edge">
<title>28&#45;&gt;15</title>
<path fill="none" stroke="grey" stroke-width="2" d="M230.63,-1799.7C235.63,-1791.56 241.69,-1781.69 247.21,-1772.7"/>
<polygon fill="grey" stroke="grey" stroke-width="2" points="250.24,-1774.46 252.49,-1764.1 244.28,-1770.79 250.24,-1774.46"/>
</g>
<!-- 29 -->
<g id="node30" class="node">
<title>29</title>
<path fill="none" stroke="#d87d56" stroke-width="2" d="M229,-1908C229,-1908 191,-1908 191,-1908 185,-1908 179,-1902 179,-1896 179,-1896 179,-1884 179,-1884 179,-1878 185,-1872 191,-1872 191,-1872 229,-1872 229,-1872 235,-1872 241,-1878 241,-1884 241,-1884 241,-1896 241,-1896 241,-1902 235,-1908 229,-1908"/>
<text text-anchor="middle" x="210" y="-1893" font-family="sans" font-size="10.00">by_sex</text>
<text text-anchor="middle" x="210" y="-1882" font-family="sans" font-size="10.00">sex: both</text>
</g>
<!-- 29&#45;&gt;28 -->
<g id="edge42" class="edge">
<title>29&#45;&gt;28</title>
<path fill="none" stroke="grey" stroke-width="2" d="M212.47,-1871.7C213.57,-1863.98 214.9,-1854.71 216.13,-1846.11"/>
<polygon fill="grey" stroke="grey" stroke-width="2" points="219.61,-1846.5 217.56,-1836.1 212.68,-1845.51 219.61,-1846.5"/>
</g>
<!-- 30 -->
<g id="node31" class="node">
<title>30</title>
<path fill="none" stroke="#d86656" stroke-width="2" d="M232.5,-1980C232.5,-1980 179.5,-1980 179.5,-1980 173.5,-1980 167.5,-1974 167.5,-1968 167.5,-1968 167.5,-1956 167.5,-1956 167.5,-1950 173.5,-1944 179.5,-1944 179.5,-1944 232.5,-1944 232.5,-1944 238.5,-1944 244.5,-1950 244.5,-1956 244.5,-1956 244.5,-1968 244.5,-1968 244.5,-1974 238.5,-1980 232.5,-1980"/>
<text text-anchor="middle" x="206" y="-1965" font-family="sans" font-size="10.00">plink</text>
<text text-anchor="middle" x="206" y="-1954" font-family="sans" font-size="10.00">ethnicity: all</text>
</g>
<!-- 30&#45;&gt;29 -->
<g id="edge45" class="edge">
<title>30&#45;&gt;29</title>
<path fill="none" stroke="grey" stroke-width="2" d="M206.99,-1943.7C207.43,-1935.98 207.96,-1926.71 208.45,-1918.11"/>
<polygon fill="grey" stroke="grey" stroke-width="2" points="211.95,-1918.29 209.02,-1908.1 204.96,-1917.89 211.95,-1918.29"/>
</g>
<!-- 31 -->
<g id="node32" class="node">
<title>31</title>
<path fill="none" stroke="#56d89a" stroke-width="2" d="M274,-2052C274,-2052 244,-2052 244,-2052 238,-2052 232,-2046 232,-2040 232,-2040 232,-2028 232,-2028 232,-2022 238,-2016 244,-2016 244,-2016 274,-2016 274,-2016 280,-2016 286,-2022 286,-2028 286,-2028 286,-2040 286,-2040 286,-2046 280,-2052 274,-2052"/>
<text text-anchor="middle" x="259" y="-2031.5" font-family="sans" font-size="10.00">filter_r2</text>
</g>
<!-- 31&#45;&gt;28 -->
<g id="edge44" class="edge">
<title>31&#45;&gt;28</title>
<path fill="none" stroke="grey" stroke-width="2" d="M260.57,-2015.65C262.73,-1985.66 264.82,-1922.5 250,-1872 247.24,-1862.61 242.56,-1853.09 237.71,-1844.75"/>
<polygon fill="grey" stroke="grey" stroke-width="2" points="240.68,-1842.9 232.45,-1836.23 234.72,-1846.58 240.68,-1842.9"/>
</g>
<!-- 31&#45;&gt;30 -->
<g id="edge46" class="edge">
<title>31&#45;&gt;30</title>
<path fill="none" stroke="grey" stroke-width="2" d="M245.9,-2015.7C239.61,-2007.39 231.95,-1997.28 225.04,-1988.14"/>
<polygon fill="grey" stroke="grey" stroke-width="2" points="227.78,-1985.96 218.95,-1980.1 222.2,-1990.19 227.78,-1985.96"/>
</g>
<!-- 32 -->
<g id="node33" class="node">
<title>32</title>
<path fill="none" stroke="#56c9d8" stroke-width="2" d="M285,-2129C285,-2129 233,-2129 233,-2129 227,-2129 221,-2123 221,-2117 221,-2117 221,-2100 221,-2100 221,-2094 227,-2088 233,-2088 233,-2088 285,-2088 285,-2088 291,-2088 297,-2094 297,-2100 297,-2100 297,-2117 297,-2117 297,-2123 291,-2129 285,-2129"/>
<text text-anchor="middle" x="259" y="-2117" font-family="sans" font-size="10.00">hds_util</text>
<text text-anchor="middle" x="259" y="-2106" font-family="sans" font-size="10.00">chip: exome</text>
<text text-anchor="middle" x="259" y="-2095" font-family="sans" font-size="10.00">chr: chr22</text>
</g>
<!-- 32&#45;&gt;31 -->
<g id="edge47" class="edge">
<title>32&#45;&gt;31</title>
<path fill="none" stroke="grey" stroke-width="2" d="M259,-2087.69C259,-2079.91 259,-2070.84 259,-2062.45"/>
<polygon fill="grey" stroke="grey" stroke-width="2" points="262.5,-2062.32 259,-2052.32 255.5,-2062.32 262.5,-2062.32"/>
</g>
<!-- 33&#45;&gt;15 -->
<g id="edge29" class="edge">
<title>33&#45;&gt;15</title>
<path fill="none" stroke="grey" stroke-width="2" d="M138.11,-1801.98C163.38,-1790.86 197.86,-1775.68 224.19,-1764.09"/>
<polygon fill="grey" stroke="grey" stroke-width="2" points="225.75,-1767.22 233.49,-1759.99 222.93,-1760.82 225.75,-1767.22"/>
</g>
<!-- 34 -->
<g id="node35" class="node">
<title>34</title>
<path fill="none" stroke="#d87d56" stroke-width="2" d="M86,-2052C86,-2052 48,-2052 48,-2052 42,-2052 36,-2046 36,-2040 36,-2040 36,-2028 36,-2028 36,-2022 42,-2016 48,-2016 48,-2016 86,-2016 86,-2016 92,-2016 98,-2022 98,-2028 98,-2028 98,-2040 98,-2040 98,-2046 92,-2052 86,-2052"/>
<text text-anchor="middle" x="67" y="-2037" font-family="sans" font-size="10.00">by_sex</text>
<text text-anchor="middle" x="67" y="-2026" font-family="sans" font-size="10.00">sex: both</text>
</g>
<!-- 34&#45;&gt;33 -->
<g id="edge48" class="edge">
<title>34&#45;&gt;33</title>
<path fill="none" stroke="grey" stroke-width="2" d="M68.77,-2015.97C71.99,-1986.47 79.45,-1924.02 90,-1872 91.73,-1863.47 94.01,-1854.28 96.22,-1845.98"/>
<polygon fill="grey" stroke="grey" stroke-width="2" points="99.67,-1846.64 98.95,-1836.07 92.92,-1844.78 99.67,-1846.64"/>
</g>
<!-- 35&#45;&gt;34 -->
<g id="edge51" class="edge">
<title>35&#45;&gt;34</title>
<path fill="none" stroke="grey" stroke-width="2" d="M67,-2164.85C67,-2139.62 67,-2092.26 67,-2062.24"/>
<polygon fill="grey" stroke="grey" stroke-width="2" points="70.5,-2062.04 67,-2052.04 63.5,-2062.04 70.5,-2062.04"/>
</g>
<!-- 36 -->
<g id="node37" class="node">
<title>36</title>
<path fill="none" stroke="#bed856" stroke-width="2" d="M336,-1332C336,-1332 262,-1332 262,-1332 256,-1332 250,-1326 250,-1320 250,-1320 250,-1308 250,-1308 250,-1302 256,-1296 262,-1296 262,-1296 336,-1296 336,-1296 342,-1296 348,-1302 348,-1308 348,-1308 348,-1320 348,-1320 348,-1326 342,-1332 336,-1332"/>
<text text-anchor="middle" x="299" y="-1317" font-family="sans" font-size="10.00">snpsift_annotate</text>
<text text-anchor="middle" x="299" y="-1306" font-family="sans" font-size="10.00">method: gwas</text>
</g>
<!-- 36&#45;&gt;9 -->
<g id="edge18" class="edge">
<title>36&#45;&gt;9</title>
<path fill="none" stroke="grey" stroke-width="2" d="M280.28,-1295.98C236.87,-1254.54 133,-1143.26 133,-1027 133,-1027 133,-1027 133,-953 133,-910.49 153.8,-864.95 169.09,-837.22"/>
<polygon fill="grey" stroke="grey" stroke-width="2" points="172.33,-838.61 174.23,-828.19 166.24,-835.15 172.33,-838.61"/>
</g>
<!-- 44 -->
<g id="node45" class="node">
<title>44</title>
<path fill="none" stroke="#d85656" stroke-width="2" d="M324,-1260C324,-1260 274,-1260 274,-1260 268,-1260 262,-1254 262,-1248 262,-1248 262,-1236 262,-1236 262,-1230 268,-1224 274,-1224 274,-1224 324,-1224 324,-1224 330,-1224 336,-1230 336,-1236 336,-1236 336,-1248 336,-1248 336,-1254 330,-1260 324,-1260"/>
<text text-anchor="middle" x="299" y="-1239.5" font-family="sans" font-size="10.00">cc_samples</text>
</g>
<!-- 36&#45;&gt;44 -->
<g id="edge63" class="edge">
<title>36&#45;&gt;44</title>
<path fill="none" stroke="grey" stroke-width="2" d="M299,-1295.7C299,-1287.98 299,-1278.71 299,-1270.11"/>
<polygon fill="grey" stroke="grey" stroke-width="2" points="302.5,-1270.1 299,-1260.1 295.5,-1270.1 302.5,-1270.1"/>
</g>
<!-- 45 -->
<g id="node46" class="node">
<title>45</title>
<path fill="none" stroke="#566bd8" stroke-width="2" d="M437,-1116C437,-1116 345,-1116 345,-1116 339,-1116 333,-1110 333,-1104 333,-1104 333,-1092 333,-1092 333,-1086 339,-1080 345,-1080 345,-1080 437,-1080 437,-1080 443,-1080 449,-1086 449,-1092 449,-1092 449,-1104 449,-1104 449,-1110 443,-1116 437,-1116"/>
<text text-anchor="middle" x="391" y="-1095.5" font-family="sans" font-size="10.00">cc_samples_rename</text>
</g>
<!-- 36&#45;&gt;45 -->
<g id="edge64" class="edge">
<title>36&#45;&gt;45</title>
<path fill="none" stroke="grey" stroke-width="2" d="M317.11,-1295.73C326.49,-1285.97 337.52,-1273.12 345,-1260 369.69,-1216.71 381.94,-1159.19 387.34,-1125.92"/>
<polygon fill="grey" stroke="grey" stroke-width="2" points="390.8,-1126.43 388.86,-1116.02 383.88,-1125.37 390.8,-1126.43"/>
</g>
<!-- 49 -->
<g id="node50" class="node">
<title>49</title>
<path fill="none" stroke="#9fd856" stroke-width="2" d="M486.5,-828C486.5,-828 455.5,-828 455.5,-828 449.5,-828 443.5,-822 443.5,-816 443.5,-816 443.5,-804 443.5,-804 443.5,-798 449.5,-792 455.5,-792 455.5,-792 486.5,-792 486.5,-792 492.5,-792 498.5,-798 498.5,-804 498.5,-804 498.5,-816 498.5,-816 498.5,-822 492.5,-828 486.5,-828"/>
<text text-anchor="middle" x="471" y="-807.5" font-family="sans" font-size="10.00">cc_filter</text>
</g>
<!-- 36&#45;&gt;49 -->
<g id="edge71" class="edge">
<title>36&#45;&gt;49</title>
<path fill="none" stroke="grey" stroke-width="2" d="M348.11,-1297.56C400.8,-1277.57 477,-1237.22 477,-1171 477,-1171 477,-1171 477,-953 477,-912.96 474.59,-866.63 472.82,-838.07"/>
<polygon fill="grey" stroke="grey" stroke-width="2" points="476.31,-837.8 472.19,-828.04 469.33,-838.24 476.31,-837.8"/>
</g>
<!-- 37&#45;&gt;36 -->
<g id="edge53" class="edge">
<title>37&#45;&gt;36</title>
<path fill="none" stroke="grey" stroke-width="2" d="M299,-1367.7C299,-1359.98 299,-1350.71 299,-1342.11"/>
<polygon fill="grey" stroke="grey" stroke-width="2" points="302.5,-1342.1 299,-1332.1 295.5,-1342.1 302.5,-1342.1"/>
</g>
<!-- 38 -->
<g id="node39" class="node">
<title>38</title>
<path fill="none" stroke="#56b1d8" stroke-width="2" d="M234.5,-1404C234.5,-1404 139.5,-1404 139.5,-1404 133.5,-1404 127.5,-1398 127.5,-1392 127.5,-1392 127.5,-1380 127.5,-1380 127.5,-1374 133.5,-1368 139.5,-1368 139.5,-1368 234.5,-1368 234.5,-1368 240.5,-1368 246.5,-1374 246.5,-1380 246.5,-1380 246.5,-1392 246.5,-1392 246.5,-1398 240.5,-1404 234.5,-1404"/>
<text text-anchor="middle" x="187" y="-1383.5" font-family="sans" font-size="10.00">dbsnp_remap_refseq</text>
</g>
<!-- 38&#45;&gt;36 -->
<g id="edge54" class="edge">
<title>38&#45;&gt;36</title>
<path fill="none" stroke="grey" stroke-width="2" d="M214.4,-1367.88C228.91,-1358.81 246.92,-1347.55 262.59,-1337.76"/>
<polygon fill="grey" stroke="grey" stroke-width="2" points="264.87,-1340.46 271.5,-1332.19 261.16,-1334.52 264.87,-1340.46"/>
</g>
<!-- 41 -->
<g id="node42" class="node">
<title>41</title>
<path fill="none" stroke="#bed856" stroke-width="2" d="M294,-1044C294,-1044 220,-1044 220,-1044 214,-1044 208,-1038 208,-1032 208,-1032 208,-1020 208,-1020 208,-1014 214,-1008 220,-1008 220,-1008 294,-1008 294,-1008 300,-1008 306,-1014 306,-1020 306,-1020 306,-1032 306,-1032 306,-1038 300,-1044 294,-1044"/>
<text text-anchor="middle" x="257" y="-1023.5" font-family="sans" font-size="10.00">snpsift_annotate</text>
</g>
<!-- 38&#45;&gt;41 -->
<g id="edge60" class="edge">
<title>38&#45;&gt;41</title>
<path fill="none" stroke="grey" stroke-width="2" d="M183.76,-1367.58C179.09,-1340.87 171,-1288.15 171,-1243 171,-1243 171,-1243 171,-1169 171,-1128.55 168.65,-1114.36 190,-1080 197.24,-1068.35 207.98,-1058.21 218.76,-1050"/>
<polygon fill="grey" stroke="grey" stroke-width="2" points="220.88,-1052.79 226.95,-1044.1 216.79,-1047.1 220.88,-1052.79"/>
</g>
<!-- 39 -->
<g id="node40" class="node">
<title>39</title>
<path fill="none" stroke="#5663d8" stroke-width="2" d="M362,-900C362,-900 278,-900 278,-900 272,-900 266,-894 266,-888 266,-888 266,-876 266,-876 266,-870 272,-864 278,-864 278,-864 362,-864 362,-864 368,-864 374,-870 374,-876 374,-876 374,-888 374,-888 374,-894 368,-900 362,-900"/>
<text text-anchor="middle" x="320" y="-879.5" font-family="sans" font-size="10.00">cc_snpsift_exclude</text>
</g>
<!-- 39&#45;&gt;9 -->
<g id="edge19" class="edge">
<title>39&#45;&gt;9</title>
<path fill="none" stroke="grey" stroke-width="2" d="M286.98,-863.88C267.21,-853.63 242.05,-840.58 221.67,-830.01"/>
<polygon fill="grey" stroke="grey" stroke-width="2" points="223.17,-826.85 212.68,-825.35 219.94,-833.06 223.17,-826.85"/>
</g>
<!-- 39&#45;&gt;49 -->
<g id="edge72" class="edge">
<title>39&#45;&gt;49</title>
<path fill="none" stroke="grey" stroke-width="2" d="M356.94,-863.88C380.42,-852.99 410.71,-838.95 434.17,-828.07"/>
<polygon fill="grey" stroke="grey" stroke-width="2" points="435.84,-831.16 443.44,-823.78 432.9,-824.81 435.84,-831.16"/>
</g>
<!-- 40 -->
<g id="node41" class="node">
<title>40</title>
<path fill="none" stroke="#d86e56" stroke-width="2" d="M373.5,-972C373.5,-972 266.5,-972 266.5,-972 260.5,-972 254.5,-966 254.5,-960 254.5,-960 254.5,-948 254.5,-948 254.5,-942 260.5,-936 266.5,-936 266.5,-936 373.5,-936 373.5,-936 379.5,-936 385.5,-942 385.5,-948 385.5,-948 385.5,-960 385.5,-960 385.5,-966 379.5,-972 373.5,-972"/>
<text text-anchor="middle" x="320" y="-951.5" font-family="sans" font-size="10.00">cc_snpsift_concordance</text>
</g>
<!-- 40&#45;&gt;39 -->
<g id="edge56" class="edge">
<title>40&#45;&gt;39</title>
<path fill="none" stroke="grey" stroke-width="2" d="M320,-935.7C320,-927.98 320,-918.71 320,-910.11"/>
<polygon fill="grey" stroke="grey" stroke-width="2" points="323.5,-910.1 320,-900.1 316.5,-910.1 323.5,-910.1"/>
</g>
<!-- 41&#45;&gt;40 -->
<g id="edge57" class="edge">
<title>41&#45;&gt;40</title>
<path fill="none" stroke="grey" stroke-width="2" d="M272.57,-1007.7C280.2,-999.22 289.52,-988.86 297.88,-979.58"/>
<polygon fill="grey" stroke="grey" stroke-width="2" points="300.52,-981.88 304.61,-972.1 295.31,-977.2 300.52,-981.88"/>
</g>
<!-- 42 -->
<g id="node43" class="node">
<title>42</title>
<path fill="none" stroke="#566bd8" stroke-width="2" d="M303,-1116C303,-1116 211,-1116 211,-1116 205,-1116 199,-1110 199,-1104 199,-1104 199,-1092 199,-1092 199,-1086 205,-1080 211,-1080 211,-1080 303,-1080 303,-1080 309,-1080 315,-1086 315,-1092 315,-1092 315,-1104 315,-1104 315,-1110 309,-1116 303,-1116"/>
<text text-anchor="middle" x="257" y="-1101" font-family="sans" font-size="10.00">cc_samples_rename</text>
<text text-anchor="middle" x="257" y="-1090" font-family="sans" font-size="10.00">method: wgs</text>
</g>
<!-- 42&#45;&gt;41 -->
<g id="edge59" class="edge">
<title>42&#45;&gt;41</title>
<path fill="none" stroke="grey" stroke-width="2" d="M257,-1079.7C257,-1071.98 257,-1062.71 257,-1054.11"/>
<polygon fill="grey" stroke="grey" stroke-width="2" points="260.5,-1054.1 257,-1044.1 253.5,-1054.1 260.5,-1054.1"/>
</g>
<!-- 43 -->
<g id="node44" class="node">
<title>43</title>
<path fill="none" stroke="#56a9d8" stroke-width="2" d="M348,-1188C348,-1188 250,-1188 250,-1188 244,-1188 238,-1182 238,-1176 238,-1176 238,-1164 238,-1164 238,-1158 244,-1152 250,-1152 250,-1152 348,-1152 348,-1152 354,-1152 360,-1158 360,-1164 360,-1164 360,-1176 360,-1176 360,-1182 354,-1188 348,-1188"/>
<text text-anchor="middle" x="299" y="-1167.5" font-family="sans" font-size="10.00">cc_samples_common</text>
</g>
<!-- 43&#45;&gt;42 -->
<g id="edge61" class="edge">
<title>43&#45;&gt;42</title>
<path fill="none" stroke="grey" stroke-width="2" d="M288.62,-1151.7C283.74,-1143.56 277.81,-1133.69 272.42,-1124.7"/>
<polygon fill="grey" stroke="grey" stroke-width="2" points="275.41,-1122.88 267.26,-1116.1 269.41,-1126.48 275.41,-1122.88"/>
</g>
<!-- 43&#45;&gt;45 -->
<g id="edge65" class="edge">
<title>43&#45;&gt;45</title>
<path fill="none" stroke="grey" stroke-width="2" d="M321.74,-1151.7C333.44,-1142.8 347.86,-1131.82 360.51,-1122.2"/>
<polygon fill="grey" stroke="grey" stroke-width="2" points="362.68,-1124.94 368.52,-1116.1 358.44,-1119.37 362.68,-1124.94"/>
</g>
<!-- 44&#45;&gt;43 -->
<g id="edge62" class="edge">
<title>44&#45;&gt;43</title>
<path fill="none" stroke="grey" stroke-width="2" d="M299,-1223.7C299,-1215.98 299,-1206.71 299,-1198.11"/>
<polygon fill="grey" stroke="grey" stroke-width="2" points="302.5,-1198.1 299,-1188.1 295.5,-1198.1 302.5,-1198.1"/>
</g>
<!-- 45&#45;&gt;40 -->
<g id="edge58" class="edge">
<title>45&#45;&gt;40</title>
<path fill="none" stroke="grey" stroke-width="2" d="M382.44,-1079.87C370.18,-1055.35 347.52,-1010.03 333.13,-981.26"/>
<polygon fill="grey" stroke="grey" stroke-width="2" points="336.2,-979.57 328.59,-972.19 329.94,-982.7 336.2,-979.57"/>
</g>
<!-- 46 -->
<g id="node47" class="node">
<title>46</title>
<path fill="none" stroke="#5692d8" stroke-width="2" d="M512.5,-756C512.5,-756 429.5,-756 429.5,-756 423.5,-756 417.5,-750 417.5,-744 417.5,-744 417.5,-732 417.5,-732 417.5,-726 423.5,-720 429.5,-720 429.5,-720 512.5,-720 512.5,-720 518.5,-720 524.5,-726 524.5,-732 524.5,-732 524.5,-744 524.5,-744 524.5,-750 518.5,-756 512.5,-756"/>
<text text-anchor="middle" x="471" y="-735.5" font-family="sans" font-size="10.00">cc_filter_ruth_snps</text>
</g>
<!-- 46&#45;&gt;8 -->
<g id="edge16" class="edge">
<title>46&#45;&gt;8</title>
<path fill="none" stroke="grey" stroke-width="2" d="M457.9,-719.7C451.61,-711.39 443.95,-701.28 437.04,-692.14"/>
<polygon fill="grey" stroke="grey" stroke-width="2" points="439.78,-689.96 430.95,-684.1 434.2,-694.19 439.78,-689.96"/>
</g>
<!-- 47 -->
<g id="node48" class="node">
<title>47</title>
<path fill="none" stroke="#56d863" stroke-width="2" d="M607,-828C607,-828 529,-828 529,-828 523,-828 517,-822 517,-816 517,-816 517,-804 517,-804 517,-798 523,-792 529,-792 529,-792 607,-792 607,-792 613,-792 619,-798 619,-804 619,-804 619,-816 619,-816 619,-822 613,-828 607,-828"/>
<text text-anchor="middle" x="568" y="-807.5" font-family="sans" font-size="10.00">cc_filter_ruth_pca</text>
</g>
<!-- 47&#45;&gt;46 -->
<g id="edge66" class="edge">
<title>47&#45;&gt;46</title>
<path fill="none" stroke="grey" stroke-width="2" d="M544.02,-791.7C531.69,-782.8 516.48,-771.82 503.15,-762.2"/>
<polygon fill="grey" stroke="grey" stroke-width="2" points="504.86,-759.12 494.7,-756.1 500.76,-764.79 504.86,-759.12"/>
</g>
<!-- 48&#45;&gt;47 -->
<g id="edge68" class="edge">
<title>48&#45;&gt;47</title>
<path fill="none" stroke="grey" stroke-width="2" d="M568,-863.7C568,-855.98 568,-846.71 568,-838.11"/>
<polygon fill="grey" stroke="grey" stroke-width="2" points="571.5,-838.1 568,-828.1 564.5,-838.1 571.5,-838.1"/>
</g>
<!-- 48&#45;&gt;49 -->
<g id="edge70" class="edge">
<title>48&#45;&gt;49</title>
<path fill="none" stroke="grey" stroke-width="2" d="M544.02,-863.7C531.69,-854.8 516.48,-843.82 503.15,-834.2"/>
<polygon fill="grey" stroke="grey" stroke-width="2" points="504.86,-831.12 494.7,-828.1 500.76,-836.79 504.86,-831.12"/>
</g>
<!-- 49&#45;&gt;46 -->
<g id="edge67" class="edge">
<title>49&#45;&gt;46</title>
<path fill="none" stroke="grey" stroke-width="2" d="M471,-791.7C471,-783.98 471,-774.71 471,-766.11"/>
<polygon fill="grey" stroke="grey" stroke-width="2" points="474.5,-766.1 471,-756.1 467.5,-766.1 474.5,-766.1"/>
</g>
<!-- 50 -->
<g id="node51" class="node">
<title>50</title>
<path fill="none" stroke="#56d882" stroke-width="2" d="M493,-468C493,-468 463,-468 463,-468 457,-468 451,-462 451,-456 451,-456 451,-444 451,-444 451,-438 457,-432 463,-432 463,-432 493,-432 493,-432 499,-432 505,-438 505,-444 505,-444 505,-456 505,-456 505,-462 499,-468 493,-468"/>
<text text-anchor="middle" x="478" y="-447.5" font-family="sans" font-size="10.00">king_qc</text>
</g>
<!-- 50&#45;&gt;4 -->
<g id="edge10" class="edge">
<title>50&#45;&gt;4</title>
<path fill="none" stroke="grey" stroke-width="2" d="M450.85,-433.29C434.59,-423.89 413.66,-411.78 395.69,-401.38"/>
<polygon fill="grey" stroke="grey" stroke-width="2" points="397.01,-398.11 386.61,-396.13 393.51,-404.16 397.01,-398.11"/>
</g>
<!-- 50&#45;&gt;52 -->
<g id="edge76" class="edge">
<title>50&#45;&gt;52</title>
<path fill="none" stroke="grey" stroke-width="2" d="M478,-431.7C478,-423.98 478,-414.71 478,-406.11"/>
<polygon fill="grey" stroke="grey" stroke-width="2" points="481.5,-406.1 478,-396.1 474.5,-406.1 481.5,-406.1"/>
</g>
<!-- 51&#45;&gt;50 -->
<g id="edge73" class="edge">
<title>51&#45;&gt;50</title>
<path fill="none" stroke="grey" stroke-width="2" d="M484.78,-503.7C483.78,-495.98 482.59,-486.71 481.49,-478.11"/>
<polygon fill="grey" stroke="grey" stroke-width="2" points="484.95,-477.58 480.2,-468.1 478,-478.47 484.95,-477.58"/>
</g>
<!-- 52&#45;&gt;3 -->
<g id="edge8" class="edge">
<title>52&#45;&gt;3</title>
<path fill="none" stroke="grey" stroke-width="2" d="M462.92,-359.7C455.61,-351.3 446.69,-341.07 438.66,-331.86"/>
<polygon fill="grey" stroke="grey" stroke-width="2" points="441.11,-329.34 431.91,-324.1 435.84,-333.94 441.11,-329.34"/>
</g>
<!-- 53 -->
<g id="node54" class="node">
<title>53</title>
<path fill="none" stroke="#70d856" stroke-width="2" d="M482,-180C482,-180 424,-180 424,-180 418,-180 412,-174 412,-168 412,-168 412,-156 412,-156 412,-150 418,-144 424,-144 424,-144 482,-144 482,-144 488,-144 494,-150 494,-156 494,-156 494,-168 494,-168 494,-174 488,-180 482,-180"/>
<text text-anchor="middle" x="453" y="-165" font-family="sans" font-size="10.00">result_concat</text>
<text text-anchor="middle" x="453" y="-154" font-family="sans" font-size="10.00">mask: MICH</text>
</g>
<!-- 53&#45;&gt;0 -->
<g id="edge2" class="edge">
<title>53&#45;&gt;0</title>
<path fill="none" stroke="grey" stroke-width="2" d="M450.76,-143.81C448.26,-125.79 443.79,-96.72 438,-72 435.97,-63.35 433.33,-54.04 430.77,-45.67"/>
<polygon fill="grey" stroke="grey" stroke-width="2" points="434.08,-44.53 427.74,-36.04 427.4,-46.63 434.08,-44.53"/>
</g>
<!-- 54&#45;&gt;53 -->
<g id="edge78" class="edge">
<title>54&#45;&gt;53</title>
<path fill="none" stroke="grey" stroke-width="2" d="M468.81,-215.7C466.47,-207.9 463.65,-198.51 461.05,-189.83"/>
<polygon fill="grey" stroke="grey" stroke-width="2" points="464.36,-188.68 458.13,-180.1 457.65,-190.69 464.36,-188.68"/>
</g>
<!-- 58 -->
<g id="node59" class="node">
<title>58</title>
<path fill="none" stroke="#5682d8" stroke-width="2" d="M589.5,-180C589.5,-180 524.5,-180 524.5,-180 518.5,-180 512.5,-174 512.5,-168 512.5,-168 512.5,-156 512.5,-156 512.5,-150 518.5,-144 524.5,-144 524.5,-144 589.5,-144 589.5,-144 595.5,-144 601.5,-150 601.5,-156 601.5,-156 601.5,-168 601.5,-168 601.5,-174 595.5,-180 589.5,-180"/>
<text text-anchor="middle" x="557" y="-159.5" font-family="sans" font-size="10.00">result_unmask</text>
</g>
<!-- 54&#45;&gt;58 -->
<g id="edge83" class="edge">
<title>54&#45;&gt;58</title>
<path fill="none" stroke="grey" stroke-width="2" d="M494.52,-215.7C504.87,-206.97 517.59,-196.24 528.84,-186.75"/>
<polygon fill="grey" stroke="grey" stroke-width="2" points="531.33,-189.23 536.72,-180.1 526.82,-183.88 531.33,-189.23"/>
</g>
<!-- 55 -->
<g id="node56" class="node">
<title>55</title>
<path fill="none" stroke="#70d856" stroke-width="2" d="M317,-108C317,-108 259,-108 259,-108 253,-108 247,-102 247,-96 247,-96 247,-84 247,-84 247,-78 253,-72 259,-72 259,-72 317,-72 317,-72 323,-72 329,-78 329,-84 329,-84 329,-96 329,-96 329,-102 323,-108 317,-108"/>
<text text-anchor="middle" x="288" y="-93" font-family="sans" font-size="10.00">result_concat</text>
<text text-anchor="middle" x="288" y="-82" font-family="sans" font-size="10.00">mask: NONE</text>
</g>
<!-- 55&#45;&gt;0 -->
<g id="edge3" class="edge">
<title>55&#45;&gt;0</title>
<path fill="none" stroke="grey" stroke-width="2" d="M320.78,-71.88C339.11,-62.3 362.1,-50.29 381.54,-40.13"/>
<polygon fill="grey" stroke="grey" stroke-width="2" points="383.24,-43.2 390.48,-35.47 380,-36.99 383.24,-43.2"/>
</g>
<!-- 56&#45;&gt;55 -->
<g id="edge80" class="edge">
<title>56&#45;&gt;55</title>
<path fill="none" stroke="grey" stroke-width="2" d="M297.79,-143.7C296.35,-135.98 294.63,-126.71 293.04,-118.11"/>
<polygon fill="grey" stroke="grey" stroke-width="2" points="296.44,-117.3 291.18,-108.1 289.56,-118.58 296.44,-117.3"/>
</g>
<!-- 57 -->
<g id="node58" class="node">
<title>57</title>
<path fill="none" stroke="#70d856" stroke-width="2" d="M565,-108C565,-108 507,-108 507,-108 501,-108 495,-102 495,-96 495,-96 495,-84 495,-84 495,-78 501,-72 507,-72 507,-72 565,-72 565,-72 571,-72 577,-78 577,-84 577,-84 577,-96 577,-96 577,-102 571,-108 565,-108"/>
<text text-anchor="middle" x="536" y="-93" font-family="sans" font-size="10.00">result_concat</text>
<text text-anchor="middle" x="536" y="-82" font-family="sans" font-size="10.00">mask: NONE</text>
</g>
<!-- 57&#45;&gt;0 -->
<g id="edge4" class="edge">
<title>57&#45;&gt;0</title>
<path fill="none" stroke="grey" stroke-width="2" d="M508.11,-71.88C493.21,-62.72 474.67,-51.34 458.62,-41.48"/>
<polygon fill="grey" stroke="grey" stroke-width="2" points="460.35,-38.44 449.99,-36.19 456.69,-44.41 460.35,-38.44"/>
</g>
<!-- 58&#45;&gt;57 -->
<g id="edge82" class="edge">
<title>58&#45;&gt;57</title>
<path fill="none" stroke="grey" stroke-width="2" d="M551.81,-143.7C549.47,-135.9 546.65,-126.51 544.05,-117.83"/>
<polygon fill="grey" stroke="grey" stroke-width="2" points="547.36,-116.68 541.13,-108.1 540.65,-118.69 547.36,-116.68"/>
</g>
</g>
</svg>
